<svg t="1695003343295" class="icon" viewBox="0 0 1024 1024" version="1.1" xmlns="http://www.w3.org/2000/svg" p-id="2799" width="200" height="200">
    <path d="M738.4 403.8H240.8c-11.1 0.3-21.5-5.5-27.1-15.1-5.6-9.6-5.6-21.5 0-31.1 5.6-9.6 16-15.4 27.1-15.1h497.8c8.2-0.1 16.1 3.1 21.9 8.8 5.8 5.7 9.1 13.6 9.2 21.8-0.1 17.1-14 30.7-31.3 30.7z m181.3-29.7c0-0.5-0.1-0.8-0.1-1.3-0.4-1.7-0.8-3.5-1.5-5.1l-73-178.6c-12.5-36.8-47.5-59.9-91.3-59.9H241.7c-43 0-76.4 22.6-88.5 58.1L74.9 369.5c-0.4 1.2-0.9 2.6-1.2 4.3-5.6 17-8.5 34.7-8.5 52.6 0 62.4 34.8 119.3 90.7 148.6 23 12.2 50 18.3 80.5 18.3h0.1c50.2 0.1 97.9-21.8 130.6-59.9 32.1 37.5 79 59.4 129.9 59.8 49.8-0.2 97-22 129.3-59.9 32.3 37.9 79.6 59.8 130.9 59.8 31.1-0.1 58.6-6.6 81.8-19.1 55-29.6 89.1-86.2 89.1-147.8 0-17.8-2.8-35.4-8.4-52.1z m-56.2 274.5c0-8.2-3.4-16-9.2-21.8-5.9-5.7-13.7-8.9-21.9-8.8-3.1 0.1-6.1 0.7-9 1.8-23.1 9.1-52.5 13.9-74.7 12.7-49-2.6-86.4-12.2-122.4-42.3-36.2 30.2-81.8 46.9-128.9 47.2-48.9-0.4-94.5-12.3-130.2-42.3-36 30.1-81.8 44.7-130.6 44.7h-0.1c-29.7 0-46.7-5.6-73.8-15.4-0.7-0.4-1.5-0.5-2.3-0.8l-3.6-1.3c-2.2-0.4-4.5-0.7-6.8-0.8-17.3 0-31.1 13.9-31.1 30.6l0.1 164c0 43.2 35.7 78.3 79.7 78.3l585.5-0.4c43.9-0.1 79.6-35.4 79.6-78.4l-0.3-167z m0 0" p-id="2800">
    </path>
</svg>